<svg width="48" height="48" viewBox="0 0 49 48" fill="none" xmlns="http://www.w3.org/2000/svg">
    <g clip-path="url(#clip0)">
        <path d="M13.718 10.026C16.7164 7.44041 20.5407 6.01242 24.5 6C32.57 6 39.269 12 39.998 19.737C44.774 20.412 48.5 24.411 48.5 29.319C48.5 34.707 44.006 39 38.561 39H11.843C5.624 39 0.5 34.098 0.5 27.954C0.5 22.665 4.298 18.285 9.326 17.175C9.755 14.586 11.42 12.006 13.718 10.026ZM15.677 12.297C13.406 14.256 12.218 16.617 12.218 18.465V19.809L10.883 19.956C6.692 20.415 3.5 23.856 3.5 27.954C3.5 32.355 7.19 36 11.843 36H38.561C42.44 36 45.5 32.964 45.5 29.319C45.5 25.671 42.44 22.635 38.561 22.635H37.061V21.135C37.064 14.475 31.484 9 24.5 9C21.2596 9.01294 18.1305 10.1833 15.677 12.3V12.297Z" fill="#F3F3F3"/>
    </g>
    <defs>
    <clipPath id="clip0">
        <rect width="48" height="48" fill="white" transform="translate(0.5)"/>
    </clipPath>
    </defs>
</svg>
