<svg width="225" height="225" viewBox="0 0 225 225" fill="none" xmlns="http://www.w3.org/2000/svg">
<path d="M112.511 87.7505C109.26 87.7505 106.04 88.391 103.036 89.6353C100.031 90.8797 97.3018 92.7036 95.0025 95.0029C92.7032 97.3022 90.8793 100.032 89.6349 103.036C88.3905 106.04 87.7501 109.26 87.7501 112.512C87.7501 115.763 88.3905 118.983 89.6349 121.987C90.8793 124.992 92.7032 127.721 95.0025 130.021C97.3018 132.32 100.031 134.144 103.036 135.388C106.04 136.633 109.26 137.273 112.511 137.273C119.078 137.271 125.376 134.661 130.019 130.017C134.661 125.372 137.268 119.073 137.267 112.506C137.265 105.939 134.655 99.6415 130.011 94.9989C125.366 90.3563 119.067 87.749 112.5 87.7505H112.511ZM112.511 58.5005C115.762 58.499 118.98 57.8574 121.982 56.6122C124.984 55.367 127.712 53.5427 130.009 51.2434C132.306 48.9441 134.128 46.2149 135.37 43.2115C136.613 40.2081 137.252 36.9895 137.25 33.7392C137.249 30.489 136.607 27.2709 135.362 24.2687C134.117 21.2664 132.292 18.5388 129.993 16.2416C127.694 13.9444 124.964 12.1226 121.961 10.8802C118.958 9.63773 115.739 8.99901 112.489 9.00049C105.925 9.00347 99.6306 11.6139 94.9912 16.2576C90.3518 20.9012 87.7471 27.1976 87.7501 33.7617C87.753 40.3258 90.3635 46.6199 95.0071 51.2593C99.6508 55.8988 105.947 58.5035 112.511 58.5005V58.5005ZM112.511 166.5C105.944 166.5 99.6461 169.109 95.0025 173.753C90.3588 178.397 87.7501 184.695 87.7501 191.262C87.7501 197.829 90.3588 204.127 95.0025 208.771C99.6461 213.414 105.944 216.023 112.511 216.023C119.078 216.023 125.377 213.414 130.02 208.771C134.664 204.127 137.273 197.829 137.273 191.262C137.273 184.695 134.664 178.397 130.02 173.753C125.377 169.109 119.078 166.5 112.511 166.5V166.5Z" fill="#F3F3F3"/>
</svg>
