<svg width="32" height="32" viewBox="0 0 32 32" fill="none" xmlns="http://www.w3.org/2000/svg">
<path d="M23.3337 14.6667C25.2786 14.6667 27.1438 15.4393 28.5191 16.8146C29.8944 18.1899 30.667 20.0551 30.667 22C30.667 23.945 29.8944 25.8102 28.5191 27.1855C27.1438 28.5608 25.2786 29.3334 23.3337 29.3334C21.3887 29.3334 19.5235 28.5608 18.1482 27.1855C16.7729 25.8102 16.0003 23.945 16.0003 22C16.0003 20.0551 16.7729 18.1899 18.1482 16.8146C19.5235 15.4393 21.3887 14.6667 23.3337 14.6667ZM23.3337 17.3334L23.2137 17.3427C23.0805 17.367 22.9578 17.4314 22.8621 17.5271C22.7663 17.6229 22.702 17.7455 22.6777 17.8787L22.667 18V21.3334H19.331L19.211 21.344C19.0778 21.3684 18.9551 21.4327 18.8594 21.5284C18.7637 21.6242 18.6993 21.7468 18.675 21.88L18.6643 22L18.675 22.12C18.6993 22.2532 18.7637 22.3759 18.8594 22.4716C18.9551 22.5674 19.0778 22.6317 19.211 22.656L19.331 22.6667H22.667V26.004L22.6777 26.124C22.702 26.2572 22.7663 26.3799 22.8621 26.4756C22.9578 26.5714 23.0805 26.6357 23.2137 26.66L23.3337 26.6707L23.4537 26.66C23.5869 26.6357 23.7095 26.5714 23.8053 26.4756C23.901 26.3799 23.9653 26.2572 23.9897 26.124L24.0003 26.004V22.6667L27.339 22.668L27.459 22.6574C27.5922 22.633 27.7148 22.5687 27.8106 22.473C27.9063 22.3772 27.9707 22.2546 27.995 22.1214L28.0057 22.0014L27.995 21.8814C27.9706 21.748 27.9061 21.6252 27.81 21.5294C27.714 21.4337 27.5911 21.3695 27.4577 21.3454L27.3377 21.3347H24.0003V18.0014L23.9897 17.8814C23.9656 17.7479 23.9014 17.625 23.8056 17.529C23.7098 17.433 23.587 17.3685 23.4537 17.344L23.3337 17.3334ZM26.3337 8.66671C27.0574 8.66647 27.7568 8.92789 28.303 9.40276C28.8492 9.87763 29.2053 10.5339 29.3057 11.2507L29.327 11.4614L29.3337 11.6667V15.7467C27.8032 14.2792 25.788 13.4237 23.6692 13.342C21.5505 13.2603 19.4753 13.9582 17.8364 15.3035C16.1976 16.6488 15.1088 18.5482 14.776 20.6423C14.4433 22.7363 14.8898 24.8797 16.031 26.6667H5.66699C4.90682 26.6668 4.17496 26.3783 3.61932 25.8595C3.06368 25.3408 2.72569 24.6304 2.67366 23.872L2.66699 23.6667V13.9987L10.943 14L11.2043 13.988C11.7253 13.9428 12.2254 13.7622 12.655 13.464L12.863 13.304L18.4283 8.66671H26.3337ZM10.943 5.33337C11.5563 5.33337 12.1537 5.52137 12.655 5.86937L12.863 6.02937L15.667 8.36404L11.583 11.768L11.4697 11.8494C11.352 11.9228 11.2203 11.9709 11.083 11.9907L10.9417 12L2.66699 11.9987V8.33337C2.6669 7.57321 2.95539 6.84135 3.47415 6.2857C3.99292 5.73006 4.70327 5.39207 5.46166 5.34004L5.66699 5.33337H10.943Z" fill="white"/>
</svg>
