<svg width="32" height="32" viewBox="0 0 32 32" fill="none" xmlns="http://www.w3.org/2000/svg">
<path d="M25.9205 17.32L25.9071 17.3466C25.9605 16.9066 26.0138 16.4533 26.0138 16C26.0138 15.5466 25.9738 15.12 25.9205 14.68L25.9338 14.7066L29.1871 12.1466L25.9471 6.51996L22.1205 8.06663L22.1338 8.07996C21.4405 7.54663 20.6805 7.09329 19.8538 6.74663H19.8671L19.2538 2.66663H12.7605L12.1738 6.75996H12.1871C11.3605 7.10663 10.6005 7.55996 9.90715 8.09329L9.92048 8.07996L6.08048 6.51996L2.82715 12.1466L6.08048 14.7066L6.09381 14.68C6.04048 15.12 6.00048 15.5466 6.00048 16C6.00048 16.4533 6.04048 16.9066 6.10715 17.3466L6.09381 17.32L3.29382 19.52L2.85382 19.8666L6.09381 25.4666L9.93381 23.9333L9.90715 23.88C10.6138 24.4266 11.3738 24.88 12.2138 25.2266H12.1738L12.7738 29.3333H19.2405C19.2405 29.3333 19.2805 29.0933 19.3205 28.7733L19.8271 25.24H19.8138C20.6405 24.8933 21.4138 24.44 22.1205 23.8933L22.0938 23.9466L25.9338 25.48L29.1738 19.88C29.1738 19.88 28.9871 19.72 28.7338 19.5333L25.9205 17.32ZM16.0005 20.6666C13.4271 20.6666 11.3338 18.5733 11.3338 16C11.3338 13.4266 13.4271 11.3333 16.0005 11.3333C18.5738 11.3333 20.6671 13.4266 20.6671 16C20.6671 18.5733 18.5738 20.6666 16.0005 20.6666Z" fill="#F3F3F3"/>
</svg>
