<svg width="32" height="32" viewBox="0 0 32 32" fill="none" xmlns="http://www.w3.org/2000/svg">
<path d="M4 6C4 3.986 5.75 2.49 7.808 1.554C9.956 0.578 12.854 0 16 0C19.146 0 22.044 0.578 24.192 1.554C26.25 2.49 28 3.986 28 6V26C28 28.014 26.25 29.51 24.192 30.446C22.044 31.42 19.146 32 16 32C12.854 32 9.956 31.422 7.808 30.446C5.75 29.51 4 28.014 4 26V6ZM6 6C6 6.748 6.712 7.75 8.636 8.626C10.468 9.458 13.072 10 16 10C18.928 10 21.532 9.46 23.364 8.626C25.288 7.75 26 6.746 26 6C26 5.252 25.288 4.25 23.364 3.374C21.532 2.542 18.928 2 16 2C13.072 2 10.468 2.54 8.636 3.374C6.712 4.25 6 5.254 6 6ZM26 9.396C25.4363 9.80921 24.8302 10.1612 24.192 10.446C22.044 11.422 19.146 12 16 12C12.854 12 9.956 11.422 7.808 10.446C7.16975 10.1612 6.56367 9.80921 6 9.396V26C6 26.748 6.712 27.75 8.636 28.626C10.468 29.458 13.072 30 16 30C18.928 30 21.532 29.46 23.364 28.626C25.288 27.75 26 26.746 26 26V9.396Z" fill="#BBBBBB"/>
</svg>
