<svg width="32" height="32" viewBox="0 0 32 32" fill="none" xmlns="http://www.w3.org/2000/svg">
<path d="M27 6H5C4.73478 6 4.48043 6.10536 4.29289 6.29289C4.10536 6.48043 4 6.73478 4 7C4 7.26522 4.10536 7.51957 4.29289 7.70711C4.48043 7.89464 4.73478 8 5 8H6V26C6.0006 26.5303 6.2115 27.0386 6.58644 27.4136C6.96139 27.7885 7.46975 27.9994 8 28H24C24.5303 27.9994 25.0386 27.7885 25.4136 27.4136C25.7885 27.0386 25.9994 26.5303 26 26V8H27C27.2652 8 27.5196 7.89464 27.7071 7.70711C27.8946 7.51957 28 7.26522 28 7C28 6.73478 27.8946 6.48043 27.7071 6.29289C27.5196 6.10536 27.2652 6 27 6ZM10.0005 3C10.0005 2.73478 10.1059 2.48043 10.2934 2.29289C10.4809 2.10536 10.7353 2 11.0005 2H21.0005C21.2657 2 21.5201 2.10536 21.7076 2.29289C21.8951 2.48043 22.0005 2.73478 22.0005 3C22.0005 3.26522 21.8951 3.51957 21.7076 3.70711C21.5201 3.89464 21.2657 4 21.0005 4H11.0005C10.7353 4 10.4809 3.89464 10.2934 3.70711C10.1059 3.51957 10.0005 3.26522 10.0005 3Z" fill="#F3F3F3"/>
</svg>
